<svg width="20" height="20" viewBox="0 0 20 20" fill="none" xmlns="http://www.w3.org/2000/svg">
<g id="bell" clip-path="url(#clip0_83_854)">
<path id="Icon" d="M11.0744 17.4256C10.9355 17.6651 10.736 17.864 10.496 18.0023C10.256 18.1405 9.98385 18.2133 9.70687 18.2133C9.42989 18.2133 9.15777 18.1405 8.91776 18.0023C8.67775 17.864 8.47827 17.6651 8.33929 17.4256M14.4499 7.14894C14.4499 5.891 13.9502 4.68459 13.0607 3.79509C12.1712 2.9056 10.9648 2.40588 9.70687 2.40588C8.44893 2.40588 7.24252 2.9056 6.35302 3.79509C5.46353 4.68459 4.96381 5.891 4.96381 7.14894C4.96381 12.6825 2.59229 14.2635 2.59229 14.2635H16.8215C16.8215 14.2635 14.4499 12.6825 14.4499 7.14894Z" stroke="#667085" stroke-width="1.58102" stroke-linecap="round" stroke-linejoin="round"/>
</g>
<defs>
<clipPath id="clip0_83_854">
<rect width="18.9722" height="18.9722" fill="white" transform="translate(0.220703 0.824951)"/>
</clipPath>
</defs>
</svg>
