<svg width="18" height="18" viewBox="0 0 18 18" fill="none" xmlns="http://www.w3.org/2000/svg">
<g id="vuesax/linear/briefcase">
<g id="briefcase">
<path id="Vector" d="M5.84974 16.396H11.6952C14.6326 16.396 15.1587 15.2196 15.3121 13.7875L15.8601 7.94202C16.0574 6.15914 15.5459 4.70508 12.4259 4.70508H5.11905C1.99902 4.70508 1.48754 6.15914 1.68483 7.94202L2.23284 13.7875C2.38628 15.2196 2.91238 16.396 5.84974 16.396Z" stroke="#001C80" stroke-width="1.09603" stroke-miterlimit="10" stroke-linecap="round" stroke-linejoin="round"/>
<path id="Vector_2" d="M5.84973 4.70509V4.12054C5.84973 2.82723 5.84973 1.78235 8.18793 1.78235H9.35702C11.6952 1.78235 11.6952 2.82723 11.6952 4.12054V4.70509" stroke="#001C80" stroke-width="1.09603" stroke-miterlimit="10" stroke-linecap="round" stroke-linejoin="round"/>
<path id="Vector_3" d="M10.2339 9.8198V10.5505C10.2339 10.5578 10.2339 10.5578 10.2339 10.5651C10.2339 11.3615 10.2266 12.0119 8.77253 12.0119C7.32577 12.0119 7.31116 11.3689 7.31116 10.5724V9.8198C7.31116 9.08911 7.31116 9.08911 8.04184 9.08911H9.50321C10.2339 9.08911 10.2339 9.08911 10.2339 9.8198Z" stroke="#001C80" stroke-width="1.09603" stroke-miterlimit="10" stroke-linecap="round" stroke-linejoin="round"/>
<path id="Vector_4" d="M15.8236 8.35852C14.1357 9.58607 12.2067 10.3168 10.2339 10.5652" stroke="#001C80" stroke-width="1.09603" stroke-miterlimit="10" stroke-linecap="round" stroke-linejoin="round"/>
<path id="Vector_5" d="M1.9187 8.55579C3.56274 9.68104 5.41869 10.3606 7.31116 10.5725" stroke="#001C80" stroke-width="1.09603" stroke-miterlimit="10" stroke-linecap="round" stroke-linejoin="round"/>
</g>
</g>
</svg>
