<svg width="20" height="20" viewBox="0 0 20 20" fill="none" xmlns="http://www.w3.org/2000/svg">
<g id="vuesax/linear/element-3">
<g id="element-3">
<path id="Vector" d="M17.5738 7.05646V3.46755C17.5738 2.35293 17.0679 1.90234 15.811 1.90234H12.6173C11.3604 1.90234 10.8545 2.35293 10.8545 3.46755V7.04856C10.8545 8.17108 11.3604 8.61377 12.6173 8.61377H15.811C17.0679 8.62167 17.5738 8.17108 17.5738 7.05646Z" stroke="#858585" stroke-width="1.42292" stroke-linecap="round" stroke-linejoin="round"/>
<path id="Vector_2" d="M17.5738 15.9498V12.7561C17.5738 11.4992 17.0679 10.9933 15.811 10.9933H12.6173C11.3604 10.9933 10.8545 11.4992 10.8545 12.7561V15.9498C10.8545 17.2067 11.3604 17.7126 12.6173 17.7126H15.811C17.0679 17.7126 17.5738 17.2067 17.5738 15.9498Z" stroke="#858585" stroke-width="1.42292" stroke-linecap="round" stroke-linejoin="round"/>
<path id="Vector_3" d="M8.483 7.05646V3.46755C8.483 2.35293 7.97708 1.90234 6.72017 1.90234H3.52651C2.2696 1.90234 1.76367 2.35293 1.76367 3.46755V7.04856C1.76367 8.17108 2.2696 8.61377 3.52651 8.61377H6.72017C7.97708 8.62167 8.483 8.17108 8.483 7.05646Z" stroke="#858585" stroke-width="1.42292" stroke-linecap="round" stroke-linejoin="round"/>
<path id="Vector_4" d="M8.483 15.9498V12.7561C8.483 11.4992 7.97708 10.9933 6.72017 10.9933H3.52651C2.2696 10.9933 1.76367 11.4992 1.76367 12.7561V15.9498C1.76367 17.2067 2.2696 17.7126 3.52651 17.7126H6.72017C7.97708 17.7126 8.483 17.2067 8.483 15.9498Z" stroke="#858585" stroke-width="1.42292" stroke-linecap="round" stroke-linejoin="round"/>
</g>
</g>
</svg>
