<svg width="16" height="16" viewBox="0 0 16 16" fill="none" xmlns="http://www.w3.org/2000/svg">
<g id="help-circle" clip-path="url(#clip0_236_1645)">
<path id="Icon" d="M6.30945 5.97226C6.45813 5.5496 6.7516 5.1932 7.13788 4.96619C7.52415 4.73917 7.97831 4.65618 8.41991 4.73193C8.86151 4.80768 9.26205 5.03726 9.55059 5.38003C9.83913 5.7228 9.99706 6.15662 9.99639 6.60467C9.99639 7.86949 8.09917 8.50189 8.09917 8.50189M8.14976 11.0315H8.15608M14.4738 7.86949C14.4738 11.3622 11.6424 14.1936 8.14976 14.1936C4.65707 14.1936 1.82568 11.3622 1.82568 7.86949C1.82568 4.37679 4.65707 1.54541 8.14976 1.54541C11.6424 1.54541 14.4738 4.37679 14.4738 7.86949Z" stroke="#98A2B3" stroke-width="1.26481" stroke-linecap="round" stroke-linejoin="round"/>
</g>
<defs>
<clipPath id="clip0_236_1645">
<rect width="15.1778" height="15.1778" fill="white" transform="translate(0.561035 0.280518)"/>
</clipPath>
</defs>
</svg>
