<svg width="228" height="136" viewBox="0 0 228 136" fill="none" xmlns="http://www.w3.org/2000/svg">
<g id="undraw_remote_design_team_0hp4 2">
<g id="undraw_remote_design_team_0hp4">
<path id="a7fa35fd-6343-4c7d-bffa-edf3207f3b92" d="M91.2486 35.6716C90.1126 35.6878 89.2015 36.4803 89.2015 37.4524C89.2015 38.4245 90.1126 39.217 91.2486 39.2331H189.375C190.523 39.2468 191.467 38.4633 191.486 37.4815C191.505 36.4998 190.591 35.6902 189.444 35.6716C189.421 35.6713 189.398 35.6713 189.375 35.6716H91.2486Z" fill="#E6E6E6"/>
<path id="ab6fdd8c-2729-46a7-820c-8bc436468813" d="M91.2414 17.8621C90.1094 17.8782 89.2015 18.6707 89.2015 19.6428C89.2015 20.6149 90.1094 21.4074 91.2414 21.4236H119.211C120.354 21.4372 121.295 20.6537 121.314 19.672C121.333 18.6903 120.422 17.8807 119.279 17.8621C119.256 17.8617 119.234 17.8617 119.211 17.8621H91.2414Z" fill="#E6E6E6"/>
<path id="a01fe1c8-ee6f-45d9-a685-f0d827ea9125" d="M91.2486 55.856C90.1126 55.8721 89.2015 56.6646 89.2015 57.6367C89.2015 58.6088 90.1126 59.4013 91.2486 59.4175H189.375C190.523 59.4311 191.467 58.6476 191.486 57.6659C191.505 56.6841 190.591 55.8746 189.444 55.856C189.421 55.8556 189.398 55.8556 189.375 55.856H91.2486Z" fill="#E6E6E6"/>
<path id="b3e0347c-1fde-42d2-8504-0cab7eeb999a" d="M222.42 135.405H88.0016C85.3812 135.405 83.2576 133.907 83.2548 132.061V103.13C83.2576 101.284 85.3812 99.7861 88.0016 99.7861H222.42C225.04 99.7861 227.164 101.284 227.167 103.13V132.061C227.164 133.907 225.04 135.403 222.42 135.405Z" fill="#E6E6E6"/>
<path id="Path" d="M66.6038 65.1506C66.6101 68.9408 65.7309 72.6811 64.035 76.0793C63.8436 76.4696 63.6407 76.8485 63.4261 77.2273H19.8365C19.6219 76.8485 19.419 76.4696 19.2276 76.0793C14.671 66.9342 16.2543 55.9581 23.2143 48.4407C30.1744 40.9232 41.0833 38.4067 50.6838 42.104C60.2843 45.8013 66.6066 54.9537 66.6038 65.1506Z" fill="#0E2354"/>
<ellipse id="Oval" cx="41.6274" cy="58.2304" rx="8.32548" ry="8.31118" fill="white"/>
<ellipse id="Oval_2" cx="42.222" cy="58.824" rx="2.97339" ry="2.96828" fill="#001C80"/>
<path id="Path_2" d="M17.0206 42.1441C15.0019 33.1801 21.455 24.1225 31.4341 21.9132C41.4131 19.7039 51.1393 25.1797 53.158 34.1436C55.1767 43.1075 48.5633 46.4136 38.5842 48.6228C28.6051 50.8321 19.0394 51.1081 17.0206 42.1441Z" fill="#001C80"/>
<path id="Shape" fill-rule="evenodd" clip-rule="evenodd" d="M2.88463 0.052124H74.4234C76.0163 0.0526993 77.3074 1.34164 77.308 2.9318V74.3477C77.3074 75.9378 76.0163 77.2268 74.4234 77.2273H2.88463C1.29173 77.2268 0.000576316 75.9378 0 74.3477V2.9318C0.000576316 1.34164 1.29173 0.0526993 2.88463 0.052124ZM74.4234 76.0754C75.3781 76.0726 76.1513 75.3007 76.1541 74.3476V2.93172C76.1514 1.97864 75.3781 1.2067 74.4234 1.20392H2.88459C1.92986 1.2067 1.15659 1.97864 1.15381 2.93172V74.3476C1.15661 75.3007 1.92987 76.0726 2.88459 76.0754H74.4234Z" fill="#001C80"/>
<ellipse id="Oval_3" cx="65.6628" cy="78.4641" rx="3.78022" ry="12.0473" transform="rotate(-50.9595 65.6628 78.4641)" fill="#0E2354"/>
<ellipse id="Oval_4" cx="14.5727" cy="57.2741" rx="3.78022" ry="12.0473" transform="rotate(-50.9595 14.5727 57.2741)" fill="#0E2354"/>
<path id="b7f0d0fe-5878-4d7b-9169-ef767dd243e7" fill-rule="evenodd" clip-rule="evenodd" d="M68.9719 117.596H203.39C206.011 117.594 208.135 116.097 208.137 114.251V85.3207C208.134 83.4746 206.011 81.9766 203.39 81.9766H68.9719C66.3515 81.9766 64.228 83.4746 64.2251 85.3207V114.252C64.228 116.098 66.3515 117.596 68.9719 117.596ZM66.1237 85.3196C66.1254 84.2121 67.3995 83.3131 68.9719 83.3131L203.39 83.3142C204.962 83.3154 206.238 84.2132 206.238 85.3207V114.25C206.237 115.358 204.962 116.257 203.39 116.257H68.9719C67.3995 116.255 66.1237 115.358 66.1237 114.25V85.3196Z" fill="#001C80"/>
<ellipse id="Oval_5" cx="88.0122" cy="98.5989" rx="10.7042" ry="10.6858" fill="#001C80"/>
<path id="b9068c95-bea0-463e-9980-b1b2ab5c3777" d="M111.465 91.4753C110.33 91.4915 109.421 92.284 109.421 93.2561C109.421 94.2282 110.33 95.0207 111.465 95.0369H189.379C190.524 95.0505 191.467 94.267 191.486 93.2853C191.505 92.3035 190.592 91.4939 189.447 91.4753C189.424 91.475 189.401 91.475 189.379 91.4753H111.465Z" fill="#001C80"/>
<path id="b4ef2f28-17ab-4899-adbe-de2d22554602" d="M111.465 103.348C110.33 103.365 109.421 104.157 109.421 105.129C109.421 106.101 110.33 106.894 111.465 106.91H189.379C190.524 106.924 191.467 106.14 191.486 105.158C191.505 104.177 190.592 103.367 189.447 103.348C189.424 103.348 189.401 103.348 189.379 103.348H111.465Z" fill="#001C80"/>
</g>
</g>
</svg>
