<svg width="20" height="20" viewBox="0 0 20 20" fill="none" xmlns="http://www.w3.org/2000/svg">
<g id="settings" clip-path="url(#clip0_83_851)">
<g id="Icon">
<path d="M9.96782 12.6826C11.2776 12.6826 12.3393 11.6208 12.3393 10.3111C12.3393 9.00132 11.2776 7.93955 9.96782 7.93955C8.65806 7.93955 7.59629 9.00132 7.59629 10.3111C7.59629 11.6208 8.65806 12.6826 9.96782 12.6826Z" stroke="#667085" stroke-width="1.58102" stroke-linecap="round" stroke-linejoin="round"/>
<path d="M15.8176 12.6826C15.7124 12.921 15.681 13.1855 15.7275 13.442C15.774 13.6984 15.8962 13.935 16.0785 14.1213L16.1259 14.1688C16.2729 14.3156 16.3895 14.49 16.4691 14.6819C16.5486 14.8738 16.5896 15.0796 16.5896 15.2873C16.5896 15.4951 16.5486 15.7008 16.4691 15.8928C16.3895 16.0847 16.2729 16.2591 16.1259 16.4059C15.9791 16.5529 15.8047 16.6695 15.6128 16.7491C15.4208 16.8286 15.2151 16.8696 15.0073 16.8696C14.7995 16.8696 14.5938 16.8286 14.4019 16.7491C14.2099 16.6695 14.0356 16.5529 13.8887 16.4059L13.8413 16.3585C13.655 16.1762 13.4184 16.054 13.1619 16.0075C12.9055 15.961 12.641 15.9924 12.4026 16.0976C12.1688 16.1978 11.9694 16.3642 11.8289 16.5763C11.6885 16.7884 11.6131 17.0369 11.6121 17.2913V17.4257C11.6121 17.845 11.4455 18.2471 11.149 18.5436C10.8525 18.8401 10.4504 19.0067 10.0311 19.0067C9.61175 19.0067 9.20961 18.8401 8.91311 18.5436C8.61661 18.2471 8.45004 17.845 8.45004 17.4257V17.3545C8.44392 17.0929 8.35923 16.8391 8.20697 16.6262C8.05471 16.4133 7.84193 16.2512 7.59629 16.1608C7.35786 16.0556 7.09337 16.0242 6.83694 16.0707C6.5805 16.1172 6.34387 16.2395 6.15756 16.4217L6.11013 16.4691C5.9633 16.6161 5.78893 16.7328 5.597 16.8123C5.40507 16.8919 5.19933 16.9328 4.99156 16.9328C4.78379 16.9328 4.57806 16.8919 4.38613 16.8123C4.19419 16.7328 4.01983 16.6161 3.87299 16.4691C3.72599 16.3223 3.60938 16.1479 3.52982 15.956C3.45025 15.7641 3.4093 15.5583 3.4093 15.3506C3.4093 15.1428 3.45025 14.9371 3.52982 14.7451C3.60938 14.5532 3.72599 14.3788 3.87299 14.232L3.92042 14.1846C4.10266 13.9983 4.22492 13.7616 4.27141 13.5052C4.31791 13.2488 4.28652 12.9843 4.18129 12.7458C4.08108 12.512 3.9147 12.3126 3.70261 12.1722C3.49052 12.0317 3.242 11.9564 2.98762 11.9553H2.85324C2.43392 11.9553 2.03178 11.7888 1.73529 11.4923C1.43879 11.1958 1.27222 10.7936 1.27222 10.3743C1.27222 9.95501 1.43879 9.55287 1.73529 9.25637C2.03178 8.95987 2.43392 8.7933 2.85324 8.7933H2.92438C3.18604 8.78718 3.4398 8.70249 3.65268 8.55023C3.86556 8.39797 4.02771 8.18519 4.11805 7.93955C4.22328 7.70112 4.25467 7.43664 4.20817 7.1802C4.16167 6.92376 4.03942 6.68713 3.85718 6.50083L3.80975 6.45339C3.66275 6.30656 3.54614 6.13219 3.46658 5.94026C3.38701 5.74833 3.34606 5.54259 3.34606 5.33482C3.34606 5.12705 3.38701 4.92132 3.46658 4.72939C3.54614 4.53746 3.66275 4.36309 3.80975 4.21625C3.95659 4.06926 4.13095 3.95264 4.32289 3.87308C4.51482 3.79351 4.72055 3.75256 4.92832 3.75256C5.13609 3.75256 5.34183 3.79351 5.53376 3.87308C5.72569 3.95264 5.90006 4.06926 6.04689 4.21625L6.09432 4.26368C6.28063 4.44593 6.51726 4.56818 6.7737 4.61467C7.03013 4.66117 7.29462 4.62978 7.53305 4.52455H7.59629C7.8301 4.42435 8.0295 4.25796 8.16996 4.04587C8.31041 3.83379 8.38579 3.58526 8.3868 3.33088V3.1965C8.3868 2.77718 8.55337 2.37505 8.84987 2.07855C9.14637 1.78205 9.54851 1.61548 9.96782 1.61548C10.3871 1.61548 10.7893 1.78205 11.0858 2.07855C11.3823 2.37505 11.5488 2.77718 11.5488 3.1965V3.26764C11.5499 3.52202 11.6252 3.77055 11.7657 3.98263C11.9061 4.19472 12.1055 4.3611 12.3393 4.46131C12.5778 4.56654 12.8423 4.59793 13.0987 4.55143C13.3551 4.50494 13.5918 4.38269 13.7781 4.20044L13.8255 4.15301C13.9723 4.00602 14.1467 3.8894 14.3386 3.80984C14.5306 3.73027 14.7363 3.68932 14.9441 3.68932C15.1518 3.68932 15.3576 3.73027 15.5495 3.80984C15.7414 3.8894 15.9158 4.00602 16.0626 4.15301C16.2096 4.29985 16.3263 4.47422 16.4058 4.66615C16.4854 4.85808 16.5263 5.06381 16.5263 5.27158C16.5263 5.47935 16.4854 5.68509 16.4058 5.87702C16.3263 6.06895 16.2096 6.24332 16.0626 6.39015L16.0152 6.43758C15.833 6.62389 15.7107 6.86052 15.6642 7.11696C15.6177 7.37339 15.6491 7.63788 15.7543 7.87631V7.93955C15.8546 8.17336 16.0209 8.37276 16.233 8.51322C16.4451 8.65367 16.6936 8.72905 16.948 8.73006H17.0824C17.5017 8.73006 17.9039 8.89663 18.2003 9.19313C18.4968 9.48963 18.6634 9.89177 18.6634 10.3111C18.6634 10.7304 18.4968 11.1325 18.2003 11.429C17.9039 11.7255 17.5017 11.8921 17.0824 11.8921H17.0113C16.7569 11.8931 16.5084 11.9685 16.2963 12.1089C16.0842 12.2494 15.9178 12.4488 15.8176 12.6826Z" stroke="#667085" stroke-width="1.58102" stroke-linecap="round" stroke-linejoin="round"/>
</g>
</g>
<defs>
<clipPath id="clip0_83_851">
<rect width="18.9722" height="18.9722" fill="white" transform="translate(0.481689 0.824951)"/>
</clipPath>
</defs>
</svg>
